HIERARCHY
ROOT Hips
{
	OFFSET 0.00000 0.00000 0.00000
	CHANNELS 6 Xposition Yposition Zposition Yrotation Zrotation Xrotation 
	JOINT Lumbar
	{
		OFFSET 0 0 0
		CHANNELS 3 Zrotation Xrotation Yrotation
		JOINT Neck
		{
			OFFSET 0.00 0.2701 0.00
			CHANNELS 3 Zrotation Xrotation Yrotation
			End Site
			{
				OFFSET 0.00 0.1379 0.00
			}
		}
		JOINT RightShoulder
		{
			OFFSET 0.0119 0.2289 0.1181
			CHANNELS 3 Zrotation Xrotation Yrotation
			JOINT RightElbow
			{
				OFFSET 0.00 -0.1475 0.00
				CHANNELS 2 Zrotation Yrotation
				JOINT RightWrist
				{
					OFFSET 0.00 -0.1605 0.00
					CHANNELS 2 Zrotation Xrotation
					End Site
					{
						OFFSET 0.0040 -0.1068 0.0006
					}
				}
			}
		}
		JOINT LeftShoulder
		{
			OFFSET 0.0119 0.2289 -0.1181
			CHANNELS 3 Zrotation Xrotation Yrotation
			JOINT LeftElbow
			{
				OFFSET 0.00 -0.1475 0.00
				CHANNELS 2 Zrotation Yrotation
				JOINT LeftWrist
				{
					OFFSET 0.00 -0.1605 0.00
					CHANNELS 2 Zrotation Xrotation
					End Site
					{
						OFFSET 0.0040 -0.1068 -0.0006
					}
				}
			}
		}
	}
	JOINT RightHip
	{
		OFFSET 0.0316 -0.0424 0.0458
		CHANNELS 3 Zrotation Xrotation Yrotation
		JOINT RightKnee
		{
			OFFSET 0.00 -0.2438 0.00
			CHANNELS 1 Zrotation
			JOINT RightAnkle
			{
				OFFSET 0.00 -0.2449 0.00
				CHANNELS 3 Zrotation Xrotation Yrotation
				End Site
				{
					OFFSET 0.1237 -0.0542 0.0051
				}
			}
		}
	}
	JOINT LeftHip
	{
		OFFSET 0.0316 -0.0424 -0.0458
		CHANNELS 3 Zrotation Xrotation Yrotation
		JOINT LeftKnee
		{
			OFFSET 0.00 -0.2438 0.00
			CHANNELS 1 Zrotation
			JOINT LeftAnkle
			{
				OFFSET 0.00 -0.2449 0.00
				CHANNELS 3 Zrotation Xrotation Yrotation
				End Site
				{
					OFFSET 0.1237 -0.0542 -0.0051
				}
			}
		}
	}
}
MOTION
Frames: 25
Frame Time: 0.02
0.00079 0.0003 0.0016 -172.77839 -30.82852 2.11356 43.68518 0.33198 -8.55108 -8.19056 3.03078 -1.00784 -19.23443 -5.70262 -11.18309 29.43517 94.73263 7.9037 1.73222 -23.20513 1.9465 44.7478 27.51262 -175.99243 34.00659 -15.90788 32.55386 -3.03826 -6.52513 -19.90462 -6.20727 -2.86739 -3.58524 37.2489 2.68649 4.30059 -24.05189 -6.55001 1.77323 3.09015
0.0006 0.00031 0.00179 -172.41071 -30.80534 2.13311 43.73298 0.3566 -8.40725 -8.16582 3.12049 -1.00892 -19.43842 -5.89991 -11.37828 29.20932 94.77691 7.935 1.72234 -23.39993 2.41485 41.03123 28.07479 -168.81874 32.18054 -14.5043 32.48054 -3.06759 -6.69712 -19.91238 -6.20749 -2.87421 -3.58999 37.24525 2.70337 4.4002 -24.04642 -6.55945 1.73634 3.07319
0.00041 0.00032 0.00198 -172.04404 -30.78219 2.15259 43.78066 0.3811 -8.26364 -8.14124 3.20998 -1.01 -19.64204 -6.09662 -11.57284 28.98429 94.82154 7.96635 1.71257 -23.59415 2.88167 37.32586 28.63576 -161.6673 30.36021 -13.10508 32.40735 -3.0969 -6.86934 -19.92012 -6.20768 -2.88096 -3.59468 37.24156 2.72033 4.49977 -24.04097 -6.56886 1.69953 3.05627
0.00023 0.00034 0.00217 -171.67747 -30.75907 2.17207 43.82831 0.40564 -8.1202 -8.11656 3.29943 -1.01107 -19.84543 -6.29333 -11.76737 28.75911 94.86541 7.99747 1.70268 -23.78837 3.34856 33.62065 29.19634 -154.51549 28.53974 -11.70579 32.33425 -3.12617 -7.04098 -19.92786 -6.20789 -2.88775 -3.5994 37.23793 2.73717 4.59912 -24.03552 -6.57827 1.66275 3.03936
4e-05 0.00035 0.00237 -171.30995 -30.73593 2.19163 43.87609 0.43033 -7.97667 -8.09174 3.38904 -1.01215 -20.04913 -6.49055 -11.96266 28.53318 94.90972 8.02875 1.69281 -23.98314 3.81701 29.90447 29.75778 -147.34205 26.71372 -10.30226 32.26103 -3.1554 -7.21194 -19.93562 -6.20814 -2.89466 -3.60419 37.23433 2.75388 4.69839 -24.03004 -6.58771 1.62589 3.02242
-0.00015 0.00036 0.00255 -170.94512 -30.71276 2.21094 43.92354 0.45441 -7.8329 -8.0677 3.47828 -1.01323 -20.25258 -6.68613 -12.15575 28.31016 94.95553 8.06044 1.68333 -24.17617 4.2804 26.2221 30.31763 -140.23765 24.90556 -8.91223 32.1879 -3.18488 -7.38672 -19.9433 -6.20822 -2.90108 -3.6087 37.23043 2.77135 4.79856 -24.02466 -6.59706 1.58921 3.00553
-0.00034 0.00038 0.00275 -170.57525 -30.68969 2.23071 43.97155 0.47972 -7.68968 -8.04197 3.56823 -1.0143 -20.45621 -6.88497 -12.35272 28.0812 94.99574 8.09052 1.67267 -24.37255 4.7534 22.47562 30.88044 -133.00079 23.06304 -7.49636 32.11472 -3.2139 -7.55405 -19.95112 -6.20863 -2.90842 -3.61374 37.22721 2.78726 4.89686 -24.01907 -6.60658 1.55221 2.98856
-0.00053 0.00039 0.00294 -170.21007 -30.66648 2.25008 44.01916 0.50381 -7.54614 -8.01805 3.65739 -1.01538 -20.65986 -7.08049 -12.54672 27.85832 95.04574 8.12345 1.66385 -24.56573 5.21764 18.78851 31.43982 -125.88855 21.25296 -6.10469 32.0415 -3.24318 -7.72746 -19.95883 -6.20874 -2.91499 -3.61833 37.22326 2.80464 4.9968 -24.01369 -6.61593 1.51551 2.97167
-0.00072 0.0004 0.00312 -169.85029 -30.64327 2.26889 44.06586 0.52677 -7.40134 -7.99537 3.74617 -1.01648 -20.86294 -7.27326 -12.73476 27.64039 95.08948 8.15446 1.65431 -24.75553 5.67097 15.17139 31.99811 -118.9159 19.47882 -4.74055 31.96851 -3.27345 -7.91166 -19.96637 -6.20847 -2.92033 -3.62219 37.21879 2.82374 5.09917 -24.00851 -6.62514 1.47911 2.95485
-0.0009 0.00042 0.00336 -169.45841 -30.62058 2.29071 44.11652 0.5573 -7.26119 -7.96264 3.83888 -1.01747 -21.0675 -7.48579 -12.95006 27.3865 95.11443 8.1803 1.63999 -24.9664 6.18647 11.1437 32.57205 -111.10158 17.48668 -3.21179 31.89504 -3.30007 -8.04389 -19.97477 -6.21034 -2.93187 -3.62974 37.21845 2.83272 5.18887 -24.00203 -6.63535 1.44081 2.93752
-0.0011 0.00043 0.00346 -169.13495 -30.59648 2.30633 44.15963 0.57118 -7.11293 -7.95294 3.92219 -1.0187 -21.27005 -7.65411 -13.11233 27.21326 95.21398 8.22739 1.64144 -25.13176 6.57115 7.98756 33.10688 -105.08814 15.96175 -2.03444 31.82207 -3.33306 -8.27921 -19.98144 -6.20773 -2.93091 -3.62983 37.20867 2.86315 5.30439 -23.99839 -6.64331 1.40663 2.92135
-0.00135 0.00044 0.0032 -168.99564 -30.57055 2.30347 44.17568 0.54434 -6.92824 -7.993 3.98865 -1.02062 -21.45816 -7.72133 -13.08922 27.22321 95.22015 8.24514 1.63744 -25.18062 6.59093 7.20085 33.58476 -103.85071 15.66992 -1.7957 31.75414 -3.39469 -8.8547 -19.98243 -6.19225 -2.89048 -3.60658 37.17821 2.95237 5.49922 -24.00166 -6.64644 1.38281 2.90764
-0.00162 0.00044 0.0028 -168.926 -30.5426 2.2946 44.18552 0.49984 -6.73806 -8.05929 4.04402 -1.02279 -21.64594 -7.74088 -13.01896 27.32037 95.34712 8.29808 1.65666 -25.18291 6.48072 7.29259 34.01475 -104.44762 15.85526 -1.91377 31.68566 -3.46058 -9.52337 -19.98184 -6.17238 -2.83843 -3.57635 37.1369 3.06324 5.71853 -24.00792 -6.6471 1.36332 2.89524
-0.00189 0.00044 0.00244 -168.82641 -30.51448 2.28951 44.20215 0.46019 -6.55964 -8.12154 4.09862 -1.02484 -21.83965 -7.76845 -12.99793 27.40362 95.62542 8.39526 1.69917 -25.20016 6.43348 6.9978 34.43291 -104.3193 15.8555 -1.88632 31.61552 -3.51735 -10.11164 -19.98262 -6.15488 -2.79506 -3.5512 37.09769 3.16408 5.92096 -24.01343 -6.64802 1.34242 2.88269
-0.00211 0.00046 0.00215 -168.71841 -30.49184 2.28021 44.20128 0.43396 -6.34206 -8.14799 4.17772 -1.02692 -22.00882 -7.8516 -12.8647 27.38196 95.07191 8.24814 1.60562 -25.24072 6.3684 6.65447 34.98994 -103.75636 15.72691 -1.79267 31.55498 -3.60477 -10.8596 -19.98073 -6.13575 -2.73736 -3.51804 37.07215 3.26532 6.14723 -24.0165 -6.65252 1.31906 2.86821
-0.00245 0.00044 0.00169 -168.64611 -30.45622 2.27797 44.23629 0.37551 -6.20481 -8.25845 4.20315 -1.029 -22.22923 -7.81009 -12.94739 27.59506 96.23119 8.6058 1.79244 -25.2252 6.31111 6.61637 35.24998 -104.50929 15.97445 -1.91734 31.47238 -3.62896 -11.29847 -19.98392 -6.11903 -2.70673 -3.49987 37.01337 3.37141 6.33026 -24.02518 -6.64904 1.30198 2.85811
-0.00303 0.00031 0.00088 -168.64136 -30.39474 2.29887 44.36401 0.23334 -6.28967 -8.56644 4.08326 -1.03098 -22.58859 -7.41525 -13.6959 28.47084 102.50233 10.45312 2.82084 -25.03643 6.29482 7.24008 34.67102 -108.64287 17.18507 -2.59109 31.3459 -3.48099 -10.85058 -20.00253 -6.10943 -2.75362 -3.52498 36.88474 3.48049 6.381 -24.0507 -6.62361 1.3004 2.85957
-0.00374 0.00014 -0.0001 -168.67302 -30.31868 2.32657 44.52939 0.05932 -6.45549 -8.96298 3.90979 -1.03297 -22.99945 -6.90039 -14.65336 29.57173 110.4138 12.78621 4.11684 -24.79848 6.29293 8.13517 33.80088 -113.99648 18.74801 -3.46536 31.19428 -3.26877 -10.0919 -20.02614 -6.10243 -2.82795 -3.56529 36.71975 3.59452 6.38758 -24.08172 -6.59033 1.30528 2.86548
-0.00444 -1e-05 -0.00104 -168.69675 -30.24288 2.34984 44.68287 -0.10087 -6.58526 -9.33777 3.76063 -1.03496 -23.38917 -6.45425 -15.47603 30.54791 117.30704 14.83034 5.24249 -24.60254 6.29294 8.88206 33.08373 -118.66714 20.12487 -4.22637 31.04285 -3.08342 -9.48039 -20.04683 -6.09474 -2.89007 -3.59867 36.55835 3.70974 6.42024 -24.10847 -6.56097 1.30758 2.8694
-0.00494 -0.00015 -0.00186 -168.68525 -30.19318 2.37893 44.81464 -0.25949 -6.7128 -9.63671 3.61091 -1.03692 -23.77165 -5.94703 -16.46173 31.62765 125.36542 17.16981 6.57507 -24.32173 6.2539 9.75997 32.27638 -123.95967 21.63576 -5.09536 30.93802 -2.90726 -8.84077 -20.07017 -6.08518 -2.95162 -3.63236 36.44986 3.81161 6.43274 -24.14144 -6.53002 1.30802 2.87299
-0.00588 -0.00034 -0.00295 -168.75647 -30.08657 2.39715 44.99999 -0.42802 -6.86289 -10.11267 3.45023 -1.03895 -24.17854 -5.53857 -17.16247 32.53658 131.37327 19.00126 7.53944 -24.2069 6.29988 10.4238 31.59004 -128.20357 22.93522 -5.7798 30.73121 -2.69762 -8.19262 -20.08924 -6.07976 -3.01987 -3.66854 36.22435 3.94166 6.47094 -24.1644 -6.5006 1.31444 2.87862
-0.00803 -0.00065 -0.00467 -169.03245 -29.82007 2.3873 45.32856 -0.62158 -7.06738 -11.06725 3.2684 -1.04114 -24.66508 -5.43709 -16.98828 32.98431 131.42202 19.37953 7.42611 -24.55922 6.59005 10.37505 31.29617 -129.41411 23.64742 -5.92693 30.24173 -2.40236 -7.52686 -20.09505 -6.08873 -3.10982 -3.71282 35.67438 4.1532 6.63939 -24.14795 -6.47711 1.33023 2.8859
-0.01061 -0.00103 -0.00666 -169.39228 -29.49889 2.36557 45.70793 -0.82256 -7.28958 -12.1927 3.07822 -1.04346 -25.16982 -5.43827 -16.52758 33.24129 129.33528 19.21863 6.93269 -25.08022 6.96352 10.10673 31.13755 -129.49235 24.1183 -5.87633 29.65315 -2.077 -6.87484 -20.09651 -6.10117 -3.20388 -3.75825 35.01288 4.39224 6.82722 -24.12592 -6.45562 1.3527 2.89554
-0.01299 -0.00139 -0.00854 -169.72375 -29.20575 2.34702 46.06238 -1.01689 -7.4958 -13.23476 2.89452 -1.04567 -25.64983 -5.38968 -16.22205 33.54014 128.15091 19.25711 6.60937 -25.52744 7.29098 9.97133 30.92478 -129.9687 24.64104 -5.89952 29.11306 -1.77159 -6.26332 -20.10004 -6.10959 -3.28949 -3.79989 34.40541 4.61494 6.97278 -24.10973 -6.4332 1.37591 2.90605
-0.0154 -0.00169 -0.01035 -170.01761 -28.89493 2.33835 46.43 -1.22758 -7.73817 -14.31216 2.69752 -1.04784 -26.20087 -5.35075 -15.8169 34.02955 127.29143 19.49769 6.30384 -25.96437 7.65323 9.70852 30.66786 -130.96247 25.4143 -5.99488 28.5522 -1.43858 -5.44787 -20.10307 -6.12819 -3.40339 -3.85563 33.77021 4.85264 7.25327 -24.06845 -6.41007 1.38394 2.90875
